<?xml version="1.0" standalone="no"?>
<!DOCTYPE svg PUBLIC "-//W3C//DTD SVG 20010904//EN"
 "http://www.w3.org/TR/2001/REC-SVG-20010904/DTD/svg10.dtd">
<svg version="1.0" xmlns="http://www.w3.org/2000/svg"
 width="97.000000pt" height="97.000000pt" viewBox="0 0 97.000000 97.000000"
 preserveAspectRatio="xMidYMid meet">
<metadata>
Created by potrace 1.14, written by Peter Selinger 2001-2017
</metadata>
<g transform="translate(0.000000,97.000000) scale(0.100000,-0.100000)"
fill="#000000" stroke="none">
<path d="M209 883 c-8 -2 -23 -16 -32 -32 -14 -25 -16 -68 -16 -365 0 -216 4
-346 11 -361 5 -12 21 -28 35 -34 28 -13 343 -15 343 -2 0 4 -5 22 -11 40
l-11 31 -142 0 -143 0 1 322 1 323 40 0 39 0 0 -157 c0 -87 1 -158 3 -158 2 0
23 18 48 41 48 44 58 44 104 -5 43 -46 47 -37 46 129 l0 154 100 -2 100 -2 2
-135 c1 -74 2 -156 2 -181 l1 -47 40 0 40 -1 0 189 c0 201 -5 230 -47 249 -23
10 -516 15 -554 4z"/>
<path d="M705 325 c-5 -2 -23 -6 -38 -9 -16 -4 -35 -19 -46 -37 -30 -50 -12
-96 71 -179 38 -39 73 -70 77 -70 5 0 40 33 79 74 79 84 95 123 68 174 -8 16
-23 32 -31 36 -29 11 -80 6 -102 -9 -14 -10 -24 -11 -28 -5 -8 13 -38 28 -50
25z"/>
</g>
</svg>
